<svg width="52" height="52" viewBox="0 0 52 52" fill="none" xmlns="http://www.w3.org/2000/svg">
<path fill-rule="evenodd" clip-rule="evenodd" d="M19.5 38.8505V46.6736C19.5 47.0473 19.8785 47.3019 20.2246 47.1612L25.8017 44.8931C25.9289 44.8414 26.0711 44.8414 26.1983 44.8931L31.7754 47.1612C32.1215 47.3019 32.5 47.0473 32.5 46.6736V38.8505L29.9766 37.9397H29.1672C29.1577 37.9487 29.1485 37.9581 29.1396 37.9679L26.371 41.0326C26.1725 41.2524 25.8275 41.2524 25.629 41.0326L22.8604 37.9679C22.8515 37.9581 22.8423 37.9487 22.8328 37.9397H22.0234L19.5 38.8505Z" fill="#326789"/>
<path fill-rule="evenodd" clip-rule="evenodd" d="M26.4088 4.91347C26.2096 4.63073 25.7905 4.63073 25.5913 4.91347L22.8756 8.76849C22.7365 8.96598 22.4761 9.03576 22.2568 8.93429L17.9775 6.95357C17.6636 6.8083 17.3006 7.01789 17.2695 7.36233L16.8452 12.0587C16.8234 12.2993 16.6328 12.49 16.3922 12.5117L11.6958 12.936C11.3514 12.9671 11.1418 13.3301 11.2871 13.644L13.2678 17.9233C13.3693 18.1426 13.2995 18.403 13.102 18.5421L9.24696 21.2578C8.96423 21.457 8.96423 21.8761 9.24696 22.0753L13.102 24.791C13.2995 24.9301 13.3693 25.1905 13.2678 25.4097L11.2871 29.6891C11.1418 30.0029 11.3514 30.366 11.6958 30.3971L16.3922 30.8214C16.6328 30.8431 16.8234 31.0338 16.8452 31.2744L17.2695 35.9708C17.3006 36.3152 17.6636 36.5248 17.9775 36.3795L22.2568 34.3988C22.4761 34.2973 22.7365 34.3671 22.8756 34.5646L25.5913 38.4196C25.7905 38.7024 26.2096 38.7024 26.4088 38.4196L29.1245 34.5646C29.2636 34.3671 29.524 34.2973 29.7432 34.3988L34.0226 36.3795C34.3364 36.5248 34.6995 36.3152 34.7306 35.9708L35.1549 31.2744C35.1766 31.0338 35.3673 30.8431 35.6079 30.8214L40.3042 30.3971C40.6487 30.366 40.8583 30.0029 40.713 29.6891L38.7323 25.4097C38.6308 25.1905 38.7006 24.9301 38.8981 24.791L42.7531 22.0753C43.0359 21.8761 43.0359 21.457 42.7531 21.2578L38.8981 18.5421C38.7006 18.403 38.6308 18.1426 38.7323 17.9233L40.713 13.644C40.8583 13.3301 40.6487 12.9671 40.3042 12.936L35.6079 12.5117C35.3673 12.49 35.1766 12.2993 35.1549 12.0587L34.7306 7.36233C34.6995 7.01789 34.3364 6.8083 34.0226 6.95357L29.7432 8.93429C29.524 9.03576 29.2636 8.96598 29.1245 8.76849L26.4088 4.91347ZM17.9334 21.6665C17.9334 17.2114 21.5449 13.5999 26 13.5999C30.4551 13.5999 34.0667 17.2114 34.0667 21.6665C34.0667 26.1216 30.4551 29.7332 26 29.7332C21.5449 29.7332 17.9334 26.1216 17.9334 21.6665ZM26 12.3999C20.8822 12.3999 16.7334 16.5487 16.7334 21.6665C16.7334 26.7844 20.8822 30.9332 26 30.9332C31.1179 30.9332 35.2667 26.7844 35.2667 21.6665C35.2667 16.5487 31.1179 12.3999 26 12.3999Z" fill="#326789"/>
</svg>
