<svg width="44" height="44" viewBox="0 0 44 44" fill="none" xmlns="http://www.w3.org/2000/svg">
<path fill-rule="evenodd" clip-rule="evenodd" d="M35.3033 34.6144C33.9158 36.0773 32.2895 37.3114 30.487 38.2545C30.8472 36.2065 31.1394 34.1584 31.3635 32.1102C32.7868 32.7804 34.1152 33.6157 35.3033 34.6144ZM36.2907 33.4848C34.8582 32.2766 33.2462 31.2938 31.5225 30.5342C31.7621 27.9394 31.8924 25.3447 31.9135 22.7499H40.3181C40.1549 26.8065 38.6735 30.5237 36.2907 33.4848ZM30.0685 29.9552C30.2786 27.5534 30.3936 25.1516 30.4134 22.7499H22.7498V28.5946C25.2468 28.67 27.7373 29.1218 30.0685 29.9552ZM21.2498 28.5946V22.7499H13.5863C13.6061 25.1516 13.7211 27.5533 13.9312 29.9551C16.2624 29.1218 18.7528 28.67 21.2498 28.5946ZM14.0794 31.4989C16.3371 30.6442 18.7806 30.1744 21.2498 30.0953V40.318C19.1106 40.2319 17.0658 39.7792 15.1764 39.0211C14.707 36.5136 14.3413 34.0062 14.0794 31.4989ZM12.4772 30.5341C12.2376 27.9394 12.1073 25.3447 12.0862 22.7499H3.68189C3.84511 26.8064 5.32641 30.5235 7.70913 33.4846C9.14156 32.2765 10.7536 31.2937 12.4772 30.5341ZM8.6965 34.6143C9.88464 33.6156 11.2129 32.7803 12.6362 32.1101C12.8603 34.1583 13.1525 36.2064 13.5127 38.2544C11.7102 37.3112 10.084 36.0771 8.6965 34.6143ZM22.7498 30.0953C25.2191 30.1745 27.6626 30.6443 29.9203 31.4989C29.6583 34.0063 29.2927 36.5137 28.8233 39.0212C26.9339 39.7793 24.8891 40.2319 22.7498 40.318V30.0953ZM40.3181 21.2499C40.1549 17.1934 38.6736 13.4762 36.2909 10.5151C34.8583 11.7234 33.2462 12.7062 31.5225 13.4659C31.7621 16.0605 31.8924 18.6552 31.9135 21.2499H40.3181ZM30.4869 5.74519C32.2896 6.68834 33.9159 7.92256 35.3035 9.38547C34.1153 10.3843 32.7869 11.2196 31.3635 11.8898C31.1394 9.84157 30.8472 7.79335 30.4869 5.74519ZM28.8232 4.9785C29.2926 7.48614 29.6583 9.99366 29.9203 12.5011C27.6626 13.3557 25.2191 13.8256 22.7498 13.9047V3.68176C24.8891 3.76782 26.9339 4.22044 28.8232 4.9785ZM22.7498 21.2499V15.4054C25.2468 15.33 27.7373 14.8782 30.0685 14.0449C30.2786 16.4466 30.3936 18.8482 30.4134 21.2499H22.7498ZM21.2498 21.2499V15.4054C18.7528 15.3301 16.2624 14.8783 13.9312 14.0449C13.7211 16.4466 13.6061 18.8483 13.5863 21.2499H21.2498ZM21.2498 3.68177V13.9047C18.7806 13.8256 16.3371 13.3558 14.0794 12.5012C14.3414 9.99373 14.707 7.48623 15.1765 4.97862C17.0658 4.22052 19.1106 3.76787 21.2498 3.68177ZM13.5128 5.74535C13.1525 7.79347 12.8603 9.84165 12.6362 11.8899C11.2129 11.2197 9.88453 10.3844 8.69635 9.38561C10.0839 7.92272 11.7102 6.68851 13.5128 5.74535ZM3.68188 21.2499C3.8451 17.1935 5.32635 13.4764 7.709 10.5153C9.14146 11.7235 10.7535 12.7063 12.4772 13.4659C12.2376 16.0605 12.1073 18.6552 12.0862 21.2499H3.68188Z" fill="#326789"/>
</svg>
