<svg width="49" height="49" viewBox="0 0 49 49" fill="none" xmlns="http://www.w3.org/2000/svg">
<path d="M36.75 18.375H43.6667C44.357 18.375 44.9167 18.9346 44.9167 19.625V41C44.9167 42.0355 44.0772 42.875 43.0417 42.875H38.625C37.5895 42.875 36.75 42.0355 36.75 41V18.375Z" fill="#326789"/>
<path fill-rule="evenodd" clip-rule="evenodd" d="M6.125 6.58331C6.125 5.2026 7.24429 4.08331 8.625 4.08331H32.2083C33.589 4.08331 34.7083 5.2026 34.7083 6.58331V40.1818L34.7083 43.0416C34.7083 44.0772 35.5478 44.9166 36.5833 44.9166H8.625C7.24429 44.9166 6.125 43.7974 6.125 42.4166V6.58331ZM12.25 17.625C11.8358 17.625 11.5 17.9608 11.5 18.375C11.5 18.7892 11.8358 19.125 12.25 19.125H28.5833C28.9975 19.125 29.3333 18.7892 29.3333 18.375C29.3333 17.9608 28.9975 17.625 28.5833 17.625H12.25ZM11.5 24.5C11.5 24.0858 11.8358 23.75 12.25 23.75H28.5833C28.9975 23.75 29.3333 24.0858 29.3333 24.5C29.3333 24.9142 28.9975 25.25 28.5833 25.25H12.25C11.8358 25.25 11.5 24.9142 11.5 24.5ZM12.25 29.875C11.8358 29.875 11.5 30.2108 11.5 30.625C11.5 31.0392 11.8358 31.375 12.25 31.375H28.5833C28.9975 31.375 29.3333 31.0392 29.3333 30.625C29.3333 30.2108 28.9975 29.875 28.5833 29.875H12.25Z" fill="#326789"/>
</svg>
