<svg width="701" height="547" viewBox="0 0 701 547" fill="none" xmlns="http://www.w3.org/2000/svg">
<g clip-path="url(#clip0_38_43)">
<path d="M145.527 359.797C113.834 328.515 100.448 295.88 107.835 267.904C117.314 232.003 159.426 207.181 223.372 199.801L223.608 201.861C160.552 209.137 119.083 233.402 109.833 268.434C102.644 295.66 115.836 327.582 146.978 358.321L145.527 359.797Z" fill="#A1C6E1" fill-opacity="0.33"/>
<path d="M451.315 470.84C411.76 470.84 368.776 464.946 326.081 453.613C273.282 439.599 224.872 418.445 186.083 392.439L187.232 390.716C225.834 416.597 274.03 437.654 326.61 451.61C374.125 464.223 421.997 470.067 465.032 468.525L465.107 470.595C460.562 470.759 455.965 470.841 451.315 470.84Z" fill="#A1C6E1" fill-opacity="0.33"/>
<path d="M542.06 457.807L541.398 455.844C576.775 443.851 598.901 424.532 605.386 399.974C613.629 368.754 595.721 332.526 554.961 297.962C513.992 263.223 454.915 234.398 388.61 216.799L389.139 214.795C455.734 232.472 515.099 261.446 556.295 296.38C597.699 331.489 615.843 368.468 607.385 400.504C600.714 425.767 578.125 445.581 542.06 457.807Z" fill="#A1C6E1" fill-opacity="0.33"/>
<path d="M217.218 471.706C139.494 437.144 79.6022 392.303 48.5754 345.444L50.2973 344.297C81.1095 390.832 140.687 435.407 218.056 469.812L217.218 471.706Z" fill="#A1C6E1" fill-opacity="0.33"/>
<path d="M490.489 531.583C482.472 531.583 474.318 531.404 466.028 531.045L466.116 528.974C527.987 531.66 582.577 524.236 623.995 507.501L624.768 509.424C588.638 524.021 542.588 531.583 490.489 531.583Z" fill="#A1C6E1" fill-opacity="0.33"/>
<path d="M445.393 201.66C432.546 197.466 419.333 193.561 406.119 190.054C330.079 169.87 255.331 162.704 189.953 169.334L189.745 167.272C255.367 160.62 330.371 167.803 406.648 188.05C419.899 191.568 433.15 195.484 446.033 199.689L445.393 201.66Z" fill="#A1C6E1" fill-opacity="0.33"/>
<path d="M96.9518 362.906C65.2584 331.624 51.8727 298.988 59.2592 271.013C68.7385 235.112 110.85 210.289 174.797 202.91L175.033 204.969C111.977 212.245 70.5073 236.511 61.2576 271.543C54.0689 298.769 67.2604 330.691 98.4022 361.43L96.9518 362.906Z" fill="#A1C6E1" fill-opacity="0.33"/>
<path d="M402.74 473.949C363.185 473.949 320.201 468.055 277.505 456.722C224.707 442.707 176.297 421.554 137.508 395.547L138.657 393.825C177.259 419.705 225.455 440.762 278.034 454.718C325.55 467.331 373.422 473.176 416.457 471.633L416.532 473.704C411.987 473.868 407.39 473.949 402.74 473.949Z" fill="#A1C6E1" fill-opacity="0.33"/>
<path d="M493.484 460.916L492.822 458.953C528.199 446.96 550.326 427.641 556.811 403.083C565.054 371.863 547.146 335.635 506.385 301.071C465.417 266.332 406.34 237.507 340.034 219.908L340.563 217.904C407.158 235.581 466.523 264.555 507.72 299.489C549.124 334.598 567.268 371.577 558.809 403.613C552.139 428.875 529.55 448.69 493.484 460.916Z" fill="#A1C6E1" fill-opacity="0.33"/>
<path d="M168.643 474.815C90.9188 440.252 31.0267 395.412 0 348.552L1.72187 347.406C32.5342 393.941 92.1119 438.516 169.48 472.921L168.643 474.815Z" fill="#A1C6E1" fill-opacity="0.33"/>
<path d="M441.913 534.692C433.897 534.692 425.743 534.512 417.452 534.153L417.541 532.083C479.412 534.769 534.002 527.345 575.419 510.61L576.192 512.533C540.062 527.129 494.012 534.692 441.913 534.692Z" fill="#A1C6E1" fill-opacity="0.33"/>
<path d="M396.817 204.768C383.971 200.575 370.757 196.67 357.543 193.163C281.504 172.979 206.756 165.813 141.378 172.443L141.17 170.38C206.792 163.729 281.795 170.912 358.072 191.159C371.323 194.677 384.574 198.592 397.457 202.798L396.817 204.768Z" fill="#A1C6E1" fill-opacity="0.33"/>
<path d="M35.2316 307.395C50.0856 290.697 73.7803 280.52 95.253 286.612C75.4436 300.668 61.2312 321.296 55.1304 344.847C52.8105 353.938 51.1742 364.292 43.6335 369.85C38.9416 373.309 32.7246 374.135 26.9545 373.347C21.1841 372.559 15.728 370.31 10.3456 368.08L8.89722 368.206C13.0614 346.224 20.3776 324.094 35.2316 307.395Z" fill="#ACC6D9" fill-opacity="0.51"/>
<path d="M95.1874 287.077C77.2347 291.435 61.1081 301.354 49.0981 315.425C46.459 318.409 44.3054 321.79 42.7165 325.446C41.2835 329.057 40.8411 332.987 41.4353 336.827C41.9175 340.419 42.8257 344.038 42.4287 347.685C42.1978 349.549 41.5766 351.343 40.6058 352.949C39.6349 354.555 38.3364 355.937 36.7954 357.005C33.0247 359.766 28.4895 361.003 24.0126 362.059C19.0417 363.231 13.8601 364.37 9.80804 367.682C9.31708 368.084 8.72471 367.296 9.21494 366.896C16.2648 361.133 26.0625 361.873 33.8624 357.687C37.502 355.734 40.5766 352.669 41.3242 348.464C41.9779 344.786 41.0445 341.054 40.5249 337.422C39.8905 333.684 40.1786 329.847 41.3641 326.246C42.7622 322.521 44.7824 319.062 47.338 316.017C52.9824 309.069 59.6813 303.054 67.1893 298.192C75.7275 292.596 85.1574 288.506 95.0713 286.098C95.6849 285.949 95.7971 286.929 95.1874 287.077L95.1874 287.077Z" fill="white"/>
<path d="M52.6992 310.666C50.6182 308.326 49.4348 305.319 49.3604 302.184C49.286 299.049 50.3254 295.99 52.293 293.553C52.6928 293.061 53.4739 293.661 53.0735 294.153C51.2371 296.42 50.2692 299.269 50.3444 302.188C50.4196 305.108 51.5331 307.904 53.4838 310.072C53.9072 310.543 53.1201 311.135 52.6992 310.666H52.6992Z" fill="white"/>
<path d="M40.9514 335.038C47.3307 335.463 53.6352 333.462 58.6079 329.433C59.1003 329.033 59.6928 329.82 59.2011 330.22C54.0185 334.402 47.4534 336.472 40.816 336.015C40.1834 335.971 40.3223 334.995 40.9514 335.038Z" fill="white"/>
<path d="M75.9486 293.885C76.5656 294.959 77.4389 295.862 78.4902 296.514C79.5415 297.166 80.7378 297.546 81.9717 297.62C82.6046 297.655 82.465 298.632 81.8363 298.596C80.4734 298.508 79.1527 298.087 77.9896 297.37C76.8265 296.652 75.8564 295.66 75.164 294.479C75.0894 294.374 75.0579 294.243 75.0756 294.115C75.0934 293.987 75.1592 293.87 75.2597 293.789C75.364 293.71 75.4949 293.677 75.6239 293.695C75.7529 293.713 75.8695 293.781 75.9486 293.885Z" fill="white"/>
<path d="M125.734 355.932C125.338 355.92 124.942 355.909 124.541 355.905C119.219 355.782 113.896 356.094 108.624 356.836C108.216 356.887 107.803 356.945 107.397 357.007C94.7148 358.931 82.4995 363.198 71.3714 369.593C66.9457 372.141 62.7197 375.024 58.7301 378.215C53.2206 382.623 47.5966 387.842 41.1464 390.101C40.4761 390.344 39.7914 390.545 39.0963 390.704L9.16262 369.968C9.11818 369.886 9.06871 369.812 9.02393 369.73L7.79102 368.957C7.98531 368.778 8.19066 368.596 8.38495 368.417C8.49723 368.313 8.61621 368.213 8.72844 368.109C8.8054 368.041 8.88274 367.973 8.9483 367.907C8.97384 367.885 8.9997 367.862 9.02054 367.846C9.08612 367.78 9.15399 367.726 9.21483 367.667C10.3599 366.65 11.5141 365.638 12.6774 364.633C12.6821 364.626 12.6821 364.626 12.6935 364.624C21.5769 356.99 31.174 350.032 41.5194 344.755C41.8307 344.597 42.1464 344.431 42.4714 344.282C47.1477 341.929 52.008 339.964 57.0037 338.406C59.7419 337.561 62.521 336.856 65.3304 336.293C72.592 334.853 80.0344 334.567 87.3847 335.446C102.037 337.2 115.967 343.632 125.049 355.052C125.281 355.345 125.506 355.632 125.734 355.932Z" fill="#ACC6D9" fill-opacity="0.51"/>
<path d="M125.404 356.266C108.453 348.908 89.6203 347.093 71.5816 351.078C67.6831 351.867 63.9329 353.267 60.4692 355.226C57.1566 357.245 54.4435 360.116 52.6117 363.541C50.8398 366.7 49.3922 370.137 46.8852 372.809C45.5817 374.158 44.0085 375.215 42.2689 375.912C40.5292 376.608 38.6624 376.928 36.7908 376.85C32.1223 376.779 27.7581 375.029 23.5495 373.169C18.8767 371.105 14.0557 368.886 8.83142 369.084C8.19843 369.108 8.19821 368.122 8.83024 368.098C17.9195 367.753 25.2981 374.258 34.0394 375.624C38.1183 376.262 42.4135 375.671 45.5356 372.765C48.2657 370.223 49.7615 366.68 51.5281 363.465C53.2662 360.098 55.8002 357.208 58.9089 355.049C62.2619 352.919 65.952 351.376 69.8212 350.488C78.5001 348.347 87.4607 347.589 96.3747 348.239C106.552 348.925 116.538 351.352 125.899 355.414C126.479 355.665 125.979 356.516 125.404 356.266Z" fill="white"/>
<path d="M77.3148 349.452C77.0588 346.327 77.9192 343.212 79.7422 340.664C81.5652 338.116 84.2322 336.301 87.2669 335.543C87.8815 335.391 88.1449 336.342 87.5295 336.493C84.7023 337.194 82.2182 338.886 80.5254 341.262C78.8326 343.638 78.0427 346.542 78.2983 349.451C78.3531 350.083 77.3692 350.081 77.3148 349.452Z" fill="white"/>
<path d="M53.2998 361.82C58.1381 366.01 64.3738 368.218 70.7635 368.003C71.3966 367.981 71.397 368.967 70.7647 368.989C64.115 369.2 57.6305 366.89 52.6051 362.518C52.1264 362.101 52.8237 361.405 53.2998 361.82Z" fill="white"/>
<path d="M105.955 350.088C105.803 351.318 105.958 352.566 106.405 353.721C106.853 354.876 107.58 355.902 108.521 356.706C109.005 357.116 108.307 357.812 107.827 357.404C106.791 356.511 105.99 355.377 105.492 354.102C104.994 352.827 104.816 351.449 104.971 350.089C104.975 349.959 105.028 349.836 105.12 349.745C105.211 349.653 105.333 349.6 105.463 349.595C105.593 349.596 105.718 349.648 105.81 349.74C105.902 349.832 105.954 349.957 105.955 350.088H105.955Z" fill="white"/>
<path d="M617.265 444.28C608.872 423.548 589.967 405.978 567.702 404.479C581.647 424.393 588.118 448.61 585.969 472.847C585.107 482.191 583.177 492.494 588.416 500.27C591.675 505.109 597.254 507.982 602.952 509.185C608.651 510.387 614.544 510.107 620.361 509.821L621.682 510.427C625.129 488.321 625.657 465.013 617.265 444.28Z" fill="#ACC6D9" fill-opacity="0.51"/>
<path d="M567.608 404.939C583.055 415.094 594.919 429.87 601.513 447.17C602.999 450.869 603.894 454.78 604.165 458.758C604.304 462.642 603.403 466.492 601.556 469.909C599.898 473.13 597.829 476.232 596.981 479.8C596.573 481.634 596.557 483.532 596.933 485.372C597.309 487.212 598.069 488.952 599.162 490.477C601.788 494.348 605.644 497.042 609.507 499.545C613.796 502.324 618.294 505.142 621 509.627C621.328 510.171 622.15 509.629 621.823 509.086C617.115 501.283 607.639 498.678 601.696 492.107C598.923 489.041 597.054 485.119 597.76 480.906C598.377 477.223 600.507 474.022 602.214 470.776C604.065 467.469 605.08 463.758 605.17 459.967C605.102 455.988 604.359 452.049 602.973 448.32C599.986 439.874 595.693 431.952 590.251 424.843C584.086 416.695 576.575 409.665 568.045 404.056C567.517 403.709 567.083 404.595 567.608 404.939Z" fill="white"/>
<path d="M599.717 441.474C602.461 439.971 604.584 437.538 605.705 434.611C606.825 431.683 606.872 428.452 605.836 425.493C605.624 424.895 604.688 425.197 604.9 425.796C605.869 428.549 605.826 431.559 604.776 434.283C603.727 437.007 601.741 439.265 599.177 440.65C598.62 440.951 599.163 441.774 599.717 441.474Z" fill="white"/>
<path d="M602.611 468.387C596.461 466.638 591.194 462.628 587.861 457.158C587.531 456.616 586.709 457.157 587.039 457.699C590.518 463.385 596.007 467.546 602.411 469.353C603.022 469.525 603.218 468.558 602.611 468.387Z" fill="white"/>
<path d="M583.445 417.834C582.504 418.638 581.379 419.194 580.17 419.454C578.962 419.714 577.708 419.668 576.521 419.322C575.913 419.143 575.717 420.109 576.321 420.288C577.634 420.664 579.019 420.713 580.355 420.429C581.691 420.145 582.937 419.537 583.985 418.659C584.091 418.584 584.164 418.472 584.19 418.345C584.217 418.218 584.194 418.086 584.126 417.976C584.054 417.867 583.943 417.791 583.815 417.765C583.688 417.738 583.555 417.763 583.445 417.834Z" fill="white"/>
<path d="M515.757 459.495C516.134 459.617 516.51 459.74 516.889 459.871C521.943 461.549 526.852 463.636 531.568 466.112C531.936 466.297 532.306 466.491 532.667 466.687C543.967 472.772 554.041 480.908 562.378 490.68C565.692 494.572 568.706 498.711 571.393 503.061C575.105 509.069 578.652 515.88 583.97 520.181C584.52 520.636 585.097 521.056 585.699 521.44L620.842 511.997C620.911 511.936 620.983 511.882 621.052 511.82L622.473 511.507C622.35 511.273 622.217 511.033 622.094 510.799C622.023 510.663 621.945 510.529 621.874 510.393C621.824 510.303 621.774 510.213 621.735 510.129C621.718 510.099 621.701 510.069 621.687 510.047C621.647 509.963 621.602 509.889 621.564 509.813C620.827 508.469 620.079 507.127 619.32 505.789C619.318 505.781 619.318 505.781 619.308 505.775C613.5 495.591 606.794 485.803 598.819 477.348C598.579 477.093 598.338 476.831 598.081 476.581C594.466 472.789 590.547 469.3 586.364 466.149C584.068 464.431 581.687 462.831 579.23 461.354C572.874 457.55 565.96 454.773 558.743 453.124C544.355 449.838 529.079 451.202 516.698 458.897C516.381 459.094 516.072 459.289 515.757 459.495Z" fill="#ACC6D9" fill-opacity="0.51"/>
<path d="M515.956 459.921C534.387 458.703 552.733 463.34 568.386 473.172C571.793 475.229 574.856 477.811 577.461 480.824C579.905 483.841 581.498 487.459 582.075 491.302C582.685 494.875 582.896 498.6 584.361 501.962C585.137 503.671 586.264 505.197 587.669 506.439C589.074 507.681 590.725 508.612 592.514 509.169C596.935 510.675 601.632 510.498 606.219 510.165C611.312 509.795 616.596 509.329 621.45 511.277C622.038 511.513 622.369 510.584 621.782 510.349C613.337 506.96 604.207 510.601 595.516 508.942C591.461 508.168 587.614 506.164 585.647 502.374C583.928 499.061 583.707 495.219 583.121 491.597C582.612 487.839 581.194 484.264 578.99 481.183C576.547 478.046 573.588 475.35 570.242 473.209C562.785 468.269 554.6 464.535 545.987 462.143C536.171 459.36 525.953 458.28 515.775 458.951C515.145 458.993 515.33 459.962 515.956 459.921Z" fill="white"/>
<path d="M563.532 469.709C564.82 466.852 565.054 463.628 564.191 460.614C563.328 457.6 561.425 454.992 558.821 453.255C558.293 452.905 557.726 453.711 558.255 454.062C560.683 455.674 562.456 458.104 563.253 460.913C564.051 463.721 563.822 466.723 562.606 469.376C562.342 469.953 563.27 470.282 563.532 469.709H563.532Z" fill="white"/>
<path d="M582.004 489.45C576.042 491.766 569.429 491.744 563.483 489.388C562.894 489.154 562.563 490.083 563.151 490.316C569.343 492.756 576.225 492.765 582.424 490.342C583.014 490.11 582.591 489.22 582.004 489.45Z" fill="white"/>
<path d="M536.344 460.656C536.075 461.865 535.511 462.989 534.702 463.926C533.893 464.863 532.864 465.584 531.709 466.024C531.115 466.248 531.539 467.138 532.129 466.916C533.403 466.424 534.538 465.626 535.435 464.593C536.331 463.56 536.961 462.322 537.27 460.988C537.31 460.865 537.301 460.731 537.246 460.614C537.191 460.497 537.093 460.405 536.973 460.358C536.85 460.314 536.715 460.321 536.597 460.377C536.48 460.433 536.389 460.533 536.344 460.656V460.656Z" fill="white"/>
<path d="M454.446 514.877C459.013 514.877 462.715 511.166 462.715 506.587C462.715 502.009 459.013 498.297 454.446 498.297C449.88 498.297 446.178 502.009 446.178 506.587C446.178 511.166 449.88 514.877 454.446 514.877Z" fill="#E65C4F"/>
<path d="M483.734 373.68C488.3 373.68 492.002 369.968 492.002 365.39C492.002 360.812 488.3 357.1 483.734 357.1C479.167 357.1 475.466 360.812 475.466 365.39C475.466 369.968 479.167 373.68 483.734 373.68Z" fill="#E6E6E6"/>
<path d="M329.883 143.731C334.449 143.731 338.151 140.02 338.151 135.441C338.151 130.863 334.449 127.151 329.883 127.151C325.317 127.151 321.615 130.863 321.615 135.441C321.615 140.02 325.317 143.731 329.883 143.731Z" fill="#E6E6E6"/>
<path d="M156.619 453.445C156.619 455.555 156.689 457.665 156.836 459.758C156.992 462.259 157.26 464.743 157.624 467.209C158.847 475.513 161.183 483.614 164.571 491.291C164.744 491.673 164.917 492.055 165.09 492.437L165.35 493.01C165.437 493.201 165.532 493.392 165.619 493.575C165.74 493.826 165.852 494.069 165.974 494.313C166.121 494.617 166.268 494.921 166.424 495.224C166.441 495.259 166.459 495.303 166.485 495.346C166.615 495.607 166.736 495.858 166.875 496.119C166.9 496.176 166.929 496.231 166.961 496.284C167.108 496.579 167.264 496.883 167.42 497.178C167.593 497.491 167.758 497.812 167.931 498.125C168.347 498.898 168.78 499.662 169.222 500.426C169.352 500.652 169.482 500.878 169.62 501.104C169.741 501.312 169.863 501.521 169.993 501.729C170.079 501.868 170.166 502.016 170.252 502.154C170.391 502.389 170.53 502.615 170.677 502.849C170.997 503.362 171.326 503.874 171.647 504.386H171.656C171.803 504.621 171.959 504.855 172.115 505.081V505.09C172.574 505.785 173.05 506.479 173.526 507.165C173.528 507.165 173.529 507.165 173.53 507.166C173.531 507.166 173.532 507.167 173.533 507.168C173.533 507.169 173.534 507.17 173.535 507.171C173.535 507.172 173.535 507.173 173.535 507.174C173.916 507.73 174.315 508.268 174.704 508.807V508.815C174.964 509.154 175.215 509.501 175.475 509.84C175.683 510.118 175.9 510.405 176.116 510.682C176.159 510.743 176.211 510.795 176.255 510.856V510.865C176.315 510.943 176.376 511.012 176.437 511.091C177.355 512.272 178.302 513.427 179.278 514.556L179.433 514.738C179.485 514.799 179.546 514.86 179.598 514.929C179.685 515.025 179.763 515.12 179.849 515.216C179.927 515.311 180.014 515.407 180.1 515.502C185.187 521.248 190.955 526.348 197.276 530.691C198.116 531.273 198.974 531.837 199.831 532.384C200.048 532.523 200.264 532.662 200.481 532.793C200.541 532.836 200.611 532.879 200.671 532.923C200.792 532.992 200.905 533.062 201.026 533.14C201.139 533.209 201.251 533.279 201.373 533.348C201.832 533.635 202.299 533.913 202.767 534.191C202.88 534.26 203.001 534.33 203.122 534.399C203.235 534.46 203.356 534.529 203.477 534.599C203.477 534.608 203.477 534.608 203.486 534.608H203.495V534.616H203.503C204.084 534.955 204.673 535.285 205.27 535.606C205.591 535.78 205.92 535.962 206.249 536.127C206.994 536.535 207.747 536.926 208.501 537.3C208.77 537.43 209.047 537.56 209.315 537.699C209.54 537.803 209.766 537.916 209.991 538.02C210.06 538.055 210.121 538.081 210.181 538.116C210.372 538.203 210.554 538.29 210.744 538.376C210.952 538.472 211.16 538.568 211.359 538.663C211.593 538.767 211.818 538.872 212.052 538.967C212.918 539.358 213.793 539.731 214.668 540.087C217.803 541.376 221.007 542.489 224.265 543.422C224.412 543.466 224.568 543.509 224.724 543.552C226.118 543.943 227.521 544.299 228.933 544.62C231.402 545.194 233.893 545.663 236.408 546.027H236.425C236.728 546.071 237.023 546.114 237.326 546.158C237.352 546.158 237.378 546.166 237.413 546.166C237.413 546.175 237.413 546.175 237.421 546.166C237.75 546.21 238.088 546.253 238.417 546.297C238.44 546.303 238.463 546.306 238.487 546.305C238.798 546.349 239.119 546.383 239.431 546.418C239.769 546.453 240.106 546.488 240.444 546.522C240.704 546.548 240.964 546.574 241.224 546.601C241.246 546.608 241.27 546.611 241.293 546.609C241.527 546.627 241.761 546.653 241.995 546.67H242.029C242.228 546.687 242.436 546.705 242.635 546.722C245.052 546.913 247.477 547 249.937 547C252.596 547 255.238 546.896 257.845 546.67H257.871C258.434 546.618 258.988 546.566 259.542 546.514C259.69 546.496 259.828 546.488 259.976 546.47C260.001 546.47 260.036 546.462 260.062 546.462C260.105 546.453 260.149 546.453 260.201 546.444C260.224 546.445 260.248 546.442 260.27 546.436C260.461 546.418 260.651 546.392 260.85 546.375L261.5 546.297C261.716 546.271 261.933 546.236 262.149 546.21C262.201 546.201 262.245 546.201 262.297 546.192C262.453 546.175 262.609 546.149 262.764 546.123C262.842 546.114 262.92 546.106 262.99 546.097C263.146 546.071 263.293 546.053 263.449 546.027H263.457C268.21 545.341 272.902 544.282 277.489 542.858C277.731 542.779 277.974 542.71 278.216 542.632C278.225 542.632 278.234 542.623 278.242 542.623C278.312 542.597 278.39 542.58 278.459 542.554C279.108 542.345 279.749 542.128 280.39 541.902C281.274 541.607 282.149 541.286 283.023 540.956C283.257 540.86 283.491 540.773 283.725 540.678C284.201 540.496 284.669 540.304 285.137 540.113C285.934 539.792 286.73 539.453 287.519 539.106C288.255 538.776 288.982 538.446 289.71 538.099C289.727 538.09 289.753 538.09 289.771 538.073C289.935 537.994 290.1 537.916 290.256 537.838H290.264C294.253 535.919 298.1 533.716 301.775 531.247C302.953 530.457 304.114 529.64 305.257 528.798C306.175 528.112 307.076 527.417 307.977 526.705C312.421 523.161 316.534 519.219 320.267 514.929V514.92C320.536 514.625 320.787 514.321 321.047 514.017C321.09 513.974 321.125 513.93 321.159 513.896C321.324 513.696 321.48 513.505 321.644 513.314V513.305C321.861 513.053 322.077 512.793 322.285 512.532C322.337 512.471 322.381 512.419 322.424 512.367V512.359C322.597 512.15 322.762 511.942 322.935 511.725C323.022 511.62 323.099 511.516 323.186 511.412V511.403C323.697 510.761 324.191 510.118 324.684 509.458C324.814 509.284 324.944 509.102 325.083 508.92C325.707 508.077 326.313 507.217 326.902 506.358V506.349C327.127 506.028 327.344 505.698 327.569 505.376C327.785 505.046 328.002 504.716 328.218 504.386C328.435 504.039 328.66 503.7 328.877 503.353L328.903 503.301C329.119 502.971 329.336 502.624 329.544 502.285C329.708 502.007 329.873 501.738 330.037 501.469C330.141 501.286 330.254 501.104 330.358 500.913C330.398 500.854 330.436 500.793 330.47 500.73C330.713 500.305 330.955 499.879 331.198 499.454C331.484 498.959 331.761 498.455 332.038 497.951C332.142 497.743 332.255 497.535 332.367 497.326C332.41 497.257 332.445 497.187 332.48 497.118C332.61 496.875 332.74 496.623 332.861 496.371C332.991 496.128 333.121 495.876 333.251 495.624C333.372 495.381 333.502 495.129 333.623 494.877C333.718 494.686 333.805 494.495 333.9 494.304C333.907 494.288 333.916 494.274 333.926 494.261C333.969 494.165 334.013 494.078 334.047 493.991C334.058 493.978 334.067 493.964 334.073 493.948C334.169 493.757 334.255 493.557 334.351 493.366C334.472 493.114 334.584 492.854 334.706 492.602C334.784 492.428 334.87 492.246 334.948 492.064C335.061 491.812 335.182 491.56 335.286 491.299C335.407 491.039 335.52 490.778 335.632 490.509C335.665 490.444 335.694 490.377 335.719 490.309C335.78 490.188 335.823 490.066 335.875 489.945C336.014 489.623 336.152 489.293 336.282 488.972C336.438 488.607 336.585 488.234 336.724 487.869C336.862 487.53 336.992 487.183 337.122 486.836L337.174 486.714C339.192 481.385 340.723 475.882 341.747 470.275V470.266C342.325 467.065 342.739 463.836 342.986 460.592C342.995 460.409 343.012 460.236 343.021 460.062C343.177 457.865 343.246 455.659 343.246 453.445C343.246 452.463 343.228 451.491 343.202 450.518C342.598 430.176 335.363 410.593 322.606 394.765C322.329 394.418 322.051 394.07 321.766 393.723C321.48 393.376 321.185 393.037 320.899 392.698C311.405 381.55 299.43 372.794 285.941 367.137C272.452 361.479 257.825 359.079 243.241 360.13C228.657 361.18 214.524 365.652 201.979 373.184C189.435 380.716 178.831 391.098 171.023 403.493C170.599 404.17 170.175 404.856 169.767 405.542C169.352 406.237 168.953 406.932 168.555 407.635C160.708 421.62 156.597 437.399 156.619 453.445Z" fill="#ACC6D9" fill-opacity="0.51"/>
<path d="M246.228 392.25C261.572 396.197 277.296 398.473 293.128 399.037C295.522 399.167 297.921 399.151 300.313 398.988C305.57 398.544 310.072 396.888 315.087 395.983C317.498 395.549 320.183 395.231 322.61 394.762C322.049 394.065 321.478 393.376 320.897 392.695C315.664 393.139 310.349 394.59 305.053 395.264C296.05 396.412 285.963 395.131 279.138 391.972C275.827 390.439 273.29 388.526 269.991 386.986C269.542 386.755 269.056 386.606 268.555 386.545C267.604 386.517 266.664 386.761 265.846 387.25C260.311 390.052 252.273 392.329 244.813 391.076C244.257 391.512 245.313 392.009 246.228 392.25Z" fill="white"/>
<path d="M213.216 402.111C213.147 402.098 213.079 402.088 213.011 402.077C213.298 401.899 213.567 401.695 213.817 401.468L213.216 402.111Z" fill="white"/>
<path d="M168.557 407.639C171.672 407.889 174.804 408.074 177.953 408.197C180.347 408.326 182.746 408.31 185.139 408.148C190.395 407.702 194.898 406.048 199.912 405.142C204.508 404.314 210.093 403.915 213.011 402.077C205.469 400.768 197.655 403.432 189.878 404.424C183.588 405.199 177.211 404.884 171.028 403.491C170.167 404.849 169.343 406.231 168.557 407.639Z" fill="white"/>
<path d="M206.249 536.127C206.994 536.535 207.747 536.926 208.501 537.3C208.769 537.43 209.047 537.56 209.315 537.699C209.54 537.803 209.766 537.916 209.991 538.02C210.06 538.055 210.121 538.081 210.181 538.116C210.372 538.203 210.554 538.29 210.744 538.377C210.952 538.472 211.16 538.568 211.359 538.663C211.593 538.767 211.818 538.872 212.052 538.967C212.918 539.358 213.793 539.731 214.668 540.087C217.803 541.376 221.007 542.489 224.265 543.422C224.412 543.466 224.568 543.509 224.724 543.552C226.118 543.943 227.521 544.299 228.933 544.621C231.402 545.194 233.893 545.663 236.408 546.027H236.425C236.728 546.071 237.023 546.114 237.326 546.158C237.352 546.158 237.378 546.166 237.413 546.166C237.413 546.175 237.413 546.175 237.421 546.166C237.75 546.21 238.088 546.253 238.417 546.297C238.44 546.303 238.463 546.306 238.487 546.305C238.798 546.349 239.119 546.383 239.431 546.418C239.768 546.453 240.106 546.488 240.444 546.522C240.704 546.548 240.964 546.574 241.224 546.601C241.246 546.608 241.269 546.611 241.293 546.609C241.527 546.627 241.761 546.653 241.994 546.67H242.029C242.228 546.687 242.436 546.705 242.635 546.722C245.052 546.913 247.477 547 249.937 547C252.596 547 255.238 546.896 257.845 546.67H257.871C258.434 546.618 258.988 546.566 259.542 546.514C259.69 546.496 259.828 546.488 259.975 546.47C260.001 546.47 260.036 546.462 260.062 546.462C260.105 546.453 260.149 546.453 260.201 546.444C260.224 546.445 260.247 546.442 260.27 546.436C260.461 546.418 260.651 546.392 260.85 546.375L261.5 546.297C261.716 546.271 261.933 546.236 262.149 546.21C262.201 546.201 262.245 546.201 262.297 546.192C262.453 546.175 262.609 546.149 262.764 546.123C262.842 546.114 262.92 546.106 262.99 546.097C263.146 546.071 263.293 546.053 263.449 546.027H263.457C268.21 545.341 272.902 544.282 277.489 542.858C277.731 542.78 277.974 542.71 278.216 542.632C277.098 537.403 274.796 532.501 271.487 528.306C268.179 524.111 263.953 520.734 259.135 518.438C260.327 517.299 261.151 515.829 261.5 514.217C261.725 513.178 261.743 512.104 261.552 511.058C261.362 510.012 260.967 509.013 260.391 508.121C259.267 506.39 257.504 505.178 255.489 504.751L242.653 502.059C240.586 501.655 238.445 502.085 236.693 503.256C234.941 504.427 233.721 506.244 233.299 508.312C233.168 508.946 233.109 509.592 233.125 510.24C220.765 518.49 211.87 527.044 206.249 536.127Z" fill="#326789"/>
<path d="M244.15 496.976C258.92 496.976 270.893 484.971 270.893 470.163C270.893 455.354 258.92 443.349 244.15 443.349C229.381 443.349 217.408 455.354 217.408 470.163C217.408 484.971 229.381 496.976 244.15 496.976Z" fill="#FFB8B8"/>
<path d="M227.481 493.28C224.629 491.327 221.717 487.573 219.773 484.76C217.197 481.063 215.424 476.864 214.57 472.435C213.716 468.007 213.799 463.448 214.815 459.054C215.139 457.297 215.934 455.662 217.117 454.325C218.376 453.076 220.433 452.483 221.971 453.367C221.551 452.24 221.366 451.04 221.428 449.839C221.489 448.638 221.795 447.463 222.327 446.385C223.408 444.233 224.973 442.364 226.9 440.925C230.584 438.08 234.968 436.288 239.586 435.74C244.204 435.192 248.884 435.907 253.129 437.811C254.8 438.587 252.056 432.593 253.805 433.171C255.541 433.845 257.473 433.811 259.185 433.076C260.829 432.246 266.28 437.178 265.649 435.443C266.897 436.011 267.981 436.887 268.801 437.988C269.621 439.09 270.149 440.381 270.337 441.742C270.524 443.104 270.366 444.49 269.875 445.773C269.384 447.057 268.578 448.194 267.53 449.081C266.15 450.249 264.427 450.921 262.916 451.913C260.268 453.781 258.394 456.556 257.647 459.714C256.901 462.872 257.333 466.196 258.863 469.056C257.273 468.032 255.529 467.272 253.697 466.805C252.778 466.58 251.819 466.579 250.899 466.801C249.979 467.022 249.126 467.461 248.409 468.08C247.811 468.767 247.358 469.57 247.08 470.438C246.802 471.307 246.704 472.223 246.792 473.131C246.852 474.951 247.284 476.743 247.332 478.563C247.474 483.903 250.327 494.056 246.197 496.894C242.939 499.134 231.375 495.947 227.481 493.28Z" fill="#2F2E41"/>
<path d="M262.538 335.956C261.975 335.954 261.417 335.841 260.898 335.623C260.122 335.311 259.459 334.771 258.995 334.075C258.531 333.378 258.287 332.557 258.296 331.72V327.475C258.295 326.585 257.942 325.732 257.314 325.102C256.686 324.473 255.835 324.119 254.947 324.118C253.83 324.116 252.758 323.671 251.968 322.878C251.178 322.086 250.733 321.012 250.732 319.891V261.746C250.733 260.625 251.178 259.551 251.968 258.759C252.758 257.966 253.829 257.521 254.947 257.519H447.079C448.196 257.521 449.268 257.966 450.058 258.759C450.848 259.551 451.293 260.625 451.294 261.746V319.891C451.293 321.012 450.848 322.086 450.058 322.878C449.268 323.671 448.196 324.116 447.079 324.118H277.441C277.001 324.116 276.565 324.203 276.159 324.371C275.752 324.54 275.383 324.788 275.073 325.101L265.492 334.707C265.106 335.101 264.647 335.414 264.14 335.629C263.633 335.843 263.088 335.954 262.538 335.956Z" fill="white"/>
<path d="M262.538 336.824C261.86 336.823 261.19 336.688 260.566 336.425C259.631 336.049 258.832 335.398 258.272 334.558C257.713 333.719 257.419 332.729 257.43 331.72V327.476C257.429 326.816 257.167 326.183 256.702 325.716C256.236 325.249 255.605 324.987 254.947 324.986C253.6 324.984 252.308 324.447 251.356 323.492C250.403 322.536 249.867 321.241 249.866 319.891V261.746C249.867 260.395 250.403 259.1 251.355 258.145C252.308 257.19 253.6 256.652 254.947 256.651H447.079C448.426 256.652 449.717 257.19 450.67 258.145C451.623 259.1 452.159 260.395 452.16 261.746V319.891C452.159 321.241 451.623 322.536 450.67 323.492C449.718 324.447 448.426 324.984 447.079 324.986H277.441C277.115 324.985 276.792 325.049 276.49 325.174C276.189 325.299 275.915 325.483 275.685 325.715L266.104 335.321C265.638 335.796 265.083 336.173 264.471 336.431C263.859 336.689 263.202 336.823 262.538 336.824ZM254.947 258.388C254.059 258.389 253.208 258.743 252.58 259.372C251.952 260.002 251.599 260.855 251.598 261.746V319.891C251.599 320.781 251.952 321.635 252.58 322.264C253.208 322.894 254.059 323.248 254.947 323.249C256.065 323.25 257.136 323.696 257.926 324.489C258.716 325.281 259.161 326.355 259.162 327.476V331.72C259.162 332.384 259.359 333.033 259.727 333.585C260.095 334.137 260.618 334.567 261.23 334.821C261.841 335.075 262.515 335.142 263.164 335.012C263.814 334.883 264.411 334.563 264.879 334.093L274.461 324.487C274.851 324.093 275.315 323.781 275.827 323.569C276.339 323.356 276.887 323.247 277.441 323.249H447.079C447.967 323.248 448.818 322.894 449.446 322.264C450.074 321.635 450.427 320.781 450.428 319.891V261.746C450.427 260.855 450.074 260.002 449.446 259.372C448.818 258.743 447.967 258.389 447.079 258.388L254.947 258.388Z" fill="#3F3D56"/>
<path d="M430.568 283.843H274.769C274.174 283.843 273.603 283.606 273.183 283.184C272.762 282.762 272.525 282.19 272.525 281.593C272.525 280.997 272.762 280.424 273.183 280.002C273.603 279.581 274.174 279.344 274.769 279.344H430.568C431.164 279.344 431.734 279.581 432.155 280.002C432.576 280.424 432.812 280.997 432.812 281.593C432.812 282.19 432.576 282.762 432.155 283.184C431.734 283.606 431.164 283.843 430.568 283.843Z" fill="#326789"/>
<path d="M430.282 293.402H274.769C274.174 293.402 273.603 293.165 273.183 292.743C272.762 292.321 272.525 291.749 272.525 291.152C272.525 290.555 272.762 289.983 273.183 289.561C273.603 289.139 274.174 288.902 274.769 288.902H430.282C430.877 288.902 431.448 289.139 431.869 289.561C432.29 289.983 432.526 290.555 432.526 291.152C432.526 291.749 432.29 292.321 431.869 292.743C431.448 293.165 430.877 293.402 430.282 293.402Z" fill="#E6E6E6"/>
<path d="M430.127 302.96H274.769C274.174 302.96 273.603 302.723 273.183 302.301C272.762 301.879 272.525 301.307 272.525 300.71C272.525 300.114 272.762 299.541 273.183 299.119C273.603 298.697 274.174 298.46 274.769 298.46H430.127C430.723 298.46 431.293 298.697 431.714 299.119C432.135 299.541 432.371 300.114 432.371 300.71C432.371 301.307 432.135 301.879 431.714 302.301C431.293 302.723 430.723 302.96 430.127 302.96Z" fill="#E6E6E6"/>
<path d="M675.92 248.496C675.92 250.606 675.851 252.717 675.703 254.81C675.547 257.311 675.279 259.794 674.915 262.261C673.693 270.565 671.356 278.666 667.969 286.342C667.796 286.724 667.622 287.106 667.449 287.489L667.189 288.062C667.103 288.253 667.007 288.444 666.921 288.626C666.799 288.878 666.687 289.121 666.566 289.364C666.418 289.668 666.271 289.972 666.115 290.276C666.098 290.311 666.081 290.354 666.055 290.398C665.925 290.658 665.803 290.91 665.665 291.171C665.639 291.227 665.61 291.282 665.578 291.336C665.431 291.631 665.275 291.935 665.119 292.23C664.946 292.543 664.781 292.864 664.608 293.177C664.192 293.95 663.759 294.714 663.318 295.478C663.188 295.704 663.058 295.93 662.919 296.155C662.798 296.364 662.677 296.572 662.547 296.781C662.46 296.92 662.373 297.067 662.287 297.206C662.148 297.441 662.01 297.666 661.862 297.901C661.542 298.413 661.213 298.926 660.892 299.438H660.884C660.736 299.673 660.581 299.907 660.425 300.133V300.141C659.966 300.836 659.489 301.531 659.013 302.217C659.012 302.217 659.01 302.217 659.009 302.218C659.008 302.218 659.007 302.219 659.007 302.219C659.006 302.22 659.005 302.221 659.005 302.222C659.004 302.223 659.004 302.224 659.004 302.226C658.623 302.781 658.225 303.32 657.835 303.858V303.867C657.575 304.206 657.324 304.553 657.064 304.892C656.856 305.17 656.64 305.456 656.423 305.734C656.38 305.795 656.328 305.847 656.284 305.908V305.916C656.224 305.995 656.163 306.064 656.103 306.142C655.184 307.323 654.238 308.478 653.262 309.607L653.106 309.79C653.054 309.85 652.993 309.911 652.941 309.981C652.855 310.076 652.777 310.172 652.69 310.267C652.612 310.363 652.525 310.458 652.439 310.554C647.352 316.299 641.584 321.4 635.263 325.743C634.423 326.324 633.566 326.889 632.708 327.436C632.492 327.575 632.275 327.714 632.059 327.844C631.998 327.888 631.929 327.931 631.868 327.974C631.747 328.044 631.634 328.113 631.513 328.192C631.4 328.261 631.288 328.331 631.167 328.4C630.707 328.687 630.24 328.964 629.772 329.242C629.659 329.312 629.538 329.381 629.417 329.451C629.304 329.512 629.183 329.581 629.062 329.651C629.062 329.659 629.062 329.659 629.053 329.659H629.044V329.668H629.036C628.455 330.007 627.867 330.337 627.269 330.658C626.948 330.832 626.619 331.014 626.29 331.179C625.545 331.587 624.792 331.978 624.038 332.351C623.77 332.482 623.493 332.612 623.224 332.751C622.999 332.855 622.774 332.968 622.548 333.072C622.479 333.107 622.419 333.133 622.358 333.168C622.167 333.254 621.985 333.341 621.795 333.428C621.587 333.524 621.379 333.619 621.18 333.715C620.946 333.819 620.721 333.923 620.487 334.019C619.621 334.41 618.746 334.783 617.871 335.139C614.736 336.427 611.532 337.541 608.275 338.474C608.127 338.517 607.971 338.561 607.815 338.604C606.421 338.995 605.018 339.351 603.606 339.672C601.138 340.245 598.646 340.714 596.131 341.079H596.114C595.811 341.122 595.516 341.166 595.213 341.209C595.187 341.209 595.161 341.218 595.127 341.218C595.127 341.227 595.127 341.227 595.118 341.218C594.789 341.261 594.451 341.305 594.122 341.348C594.099 341.355 594.076 341.358 594.053 341.357C593.741 341.4 593.42 341.435 593.108 341.47C592.771 341.505 592.433 341.539 592.095 341.574C591.835 341.6 591.575 341.626 591.316 341.652C591.293 341.66 591.27 341.663 591.246 341.661C591.012 341.678 590.779 341.704 590.545 341.722H590.51C590.311 341.739 590.103 341.756 589.904 341.774C587.487 341.965 585.062 342.052 582.602 342.052C579.943 342.052 577.301 341.947 574.694 341.722H574.668C574.105 341.67 573.551 341.617 572.997 341.565C572.85 341.548 572.711 341.539 572.564 341.522C572.538 341.522 572.503 341.513 572.477 341.513C572.434 341.505 572.391 341.505 572.339 341.496C572.315 341.497 572.292 341.494 572.269 341.487C572.079 341.47 571.888 341.444 571.689 341.426L571.039 341.348C570.823 341.322 570.606 341.287 570.39 341.261C570.338 341.253 570.294 341.253 570.243 341.244C570.087 341.227 569.931 341.201 569.775 341.175C569.697 341.166 569.619 341.157 569.55 341.149C569.394 341.122 569.246 341.105 569.091 341.079H569.082C564.329 340.393 559.637 339.333 555.05 337.909C554.808 337.831 554.565 337.762 554.323 337.684C554.314 337.684 554.306 337.675 554.297 337.675C554.228 337.649 554.15 337.631 554.08 337.605C553.431 337.397 552.79 337.18 552.149 336.954C551.265 336.659 550.391 336.337 549.516 336.007C549.282 335.912 549.048 335.825 548.814 335.73C548.338 335.547 547.87 335.356 547.403 335.165C546.606 334.844 545.809 334.505 545.021 334.158C544.284 333.828 543.557 333.498 542.829 333.15C542.812 333.142 542.786 333.142 542.769 333.124C542.604 333.046 542.44 332.968 542.284 332.89H542.275C538.286 330.97 534.439 328.768 530.764 326.298C529.586 325.508 528.425 324.692 527.282 323.85C526.364 323.163 525.463 322.469 524.563 321.757C520.119 318.212 516.005 314.271 512.272 309.981V309.972C512.004 309.677 511.752 309.373 511.493 309.069C511.449 309.025 511.415 308.982 511.38 308.947C511.215 308.748 511.059 308.557 510.895 308.365V308.357C510.678 308.105 510.462 307.844 510.254 307.584C510.202 307.523 510.159 307.471 510.115 307.419V307.41C509.942 307.202 509.778 306.993 509.604 306.776C509.518 306.672 509.44 306.568 509.353 306.464V306.455C508.842 305.812 508.348 305.17 507.855 304.51C507.725 304.336 507.595 304.154 507.456 303.971C506.833 303.129 506.226 302.269 505.637 301.409V301.401C505.412 301.079 505.196 300.749 504.97 300.428C504.754 300.098 504.537 299.768 504.321 299.438C504.104 299.091 503.879 298.752 503.663 298.405L503.637 298.353C503.42 298.023 503.204 297.675 502.996 297.336C502.831 297.059 502.667 296.789 502.502 296.52C502.398 296.338 502.285 296.155 502.182 295.964C502.141 295.906 502.103 295.845 502.069 295.782C501.826 295.356 501.584 294.931 501.341 294.505C501.056 294.01 500.778 293.507 500.501 293.003C500.397 292.795 500.285 292.586 500.172 292.378C500.129 292.308 500.094 292.239 500.06 292.169C499.93 291.926 499.8 291.674 499.678 291.423C499.548 291.179 499.419 290.928 499.289 290.676C499.167 290.433 499.037 290.181 498.916 289.929C498.821 289.738 498.734 289.547 498.639 289.356C498.632 289.34 498.624 289.326 498.613 289.312C498.57 289.217 498.526 289.13 498.492 289.043C498.481 289.03 498.473 289.015 498.466 289C498.371 288.809 498.284 288.609 498.189 288.418C498.067 288.166 497.955 287.905 497.834 287.654C497.756 287.48 497.669 287.298 497.591 287.115C497.478 286.863 497.357 286.611 497.253 286.351C497.132 286.09 497.019 285.83 496.907 285.561C496.874 285.496 496.845 285.429 496.82 285.361C496.76 285.239 496.716 285.118 496.664 284.996C496.526 284.675 496.387 284.345 496.257 284.024C496.101 283.659 495.954 283.285 495.815 282.921C495.677 282.582 495.547 282.235 495.417 281.887L495.365 281.766C493.347 276.436 491.816 270.934 490.792 265.326V265.318C490.214 262.116 489.801 258.887 489.553 255.643C489.545 255.461 489.527 255.287 489.519 255.114C489.363 252.917 489.293 250.711 489.293 248.496C489.293 247.515 489.311 246.542 489.337 245.57C489.941 225.228 497.176 205.645 509.933 189.817C510.211 189.469 510.488 189.122 510.774 188.775C511.059 188.427 511.354 188.089 511.64 187.75C521.135 176.601 533.109 167.845 546.599 162.188C560.088 156.531 574.714 154.131 589.298 155.181C603.882 156.232 618.016 160.703 630.56 168.235C643.104 175.767 653.708 186.149 661.516 198.544C661.94 199.222 662.365 199.908 662.772 200.594C663.188 201.289 663.586 201.983 663.984 202.687C671.831 216.671 675.942 232.451 675.92 248.496Z" fill="#ACC6D9" fill-opacity="0.51"/>
<path d="M586.311 187.301C570.967 191.249 555.243 193.525 539.412 194.088C537.018 194.219 534.618 194.203 532.226 194.039C526.969 193.596 522.467 191.94 517.452 191.034C515.041 190.6 512.356 190.283 509.929 189.814C510.49 189.117 511.061 188.428 511.642 187.747C516.875 188.19 522.19 189.642 527.486 190.316C536.489 191.464 546.576 190.183 553.401 187.024C556.713 185.491 559.249 183.578 562.549 182.038C562.997 181.807 563.483 181.658 563.984 181.597C564.936 181.568 565.875 181.813 566.693 182.302C572.229 185.104 580.266 187.381 587.726 186.128C588.282 186.564 587.226 187.061 586.311 187.301Z" fill="white"/>
<path d="M619.324 197.162C619.392 197.15 619.46 197.14 619.528 197.128C619.242 196.95 618.972 196.746 618.722 196.519L619.324 197.162Z" fill="white"/>
<path d="M663.983 202.691C660.867 202.94 657.735 203.126 654.586 203.248C652.192 203.378 649.793 203.361 647.401 203.199C642.144 202.754 637.642 201.099 632.627 200.194C628.031 199.366 622.447 198.967 619.529 197.128C627.07 195.82 634.884 198.484 642.661 199.475C648.951 200.251 655.328 199.935 661.511 198.542C662.372 199.9 663.196 201.283 663.983 202.691Z" fill="white"/>
<path d="M572.083 289.435C587.562 289.435 600.11 276.573 600.11 260.708C600.11 244.842 587.562 231.98 572.083 231.98C556.604 231.98 544.056 244.842 544.056 260.708C544.056 276.573 556.604 289.435 572.083 289.435Z" fill="#FFB6B6"/>
<path d="M626.29 331.179C625.545 331.587 624.792 331.978 624.038 332.351C623.77 332.482 623.493 332.612 623.224 332.751C622.999 332.855 622.774 332.968 622.549 333.072C622.479 333.107 622.419 333.133 622.358 333.168C622.167 333.254 621.986 333.341 621.795 333.428C621.587 333.524 621.379 333.619 621.18 333.715C620.946 333.819 620.721 333.923 620.487 334.019C619.621 334.41 618.746 334.783 617.871 335.139C614.736 336.427 611.533 337.541 608.275 338.474C608.127 338.517 607.972 338.561 607.816 338.604C606.421 338.995 605.018 339.351 603.606 339.672C601.138 340.245 598.646 340.714 596.131 341.079H596.114C595.811 341.122 595.516 341.166 595.213 341.209C595.187 341.209 595.161 341.218 595.127 341.218C595.127 341.227 595.127 341.227 595.118 341.218C594.789 341.261 594.451 341.305 594.122 341.348C594.099 341.355 594.076 341.358 594.053 341.357C593.741 341.4 593.42 341.435 593.109 341.47C592.771 341.505 592.433 341.539 592.095 341.574C591.835 341.6 591.576 341.626 591.316 341.652C591.293 341.66 591.27 341.663 591.246 341.661C591.013 341.678 590.779 341.704 590.545 341.722H590.51C590.311 341.739 590.103 341.756 589.904 341.774C587.487 341.965 585.062 342.052 582.602 342.052C579.943 342.052 577.302 341.947 574.695 341.722H574.669C574.106 341.67 573.551 341.617 572.997 341.565C572.85 341.548 572.711 341.539 572.564 341.522C572.538 341.522 572.503 341.513 572.477 341.513C572.434 341.505 572.391 341.505 572.339 341.496C572.315 341.497 572.292 341.494 572.269 341.487C572.079 341.47 571.888 341.444 571.689 341.426L571.039 341.348C570.823 341.322 570.606 341.287 570.39 341.261C570.338 341.253 570.295 341.253 570.243 341.244C570.087 341.227 569.931 341.201 569.775 341.175C569.697 341.166 569.619 341.157 569.55 341.149C569.394 341.122 569.247 341.105 569.091 341.079H569.082C564.329 340.393 559.638 339.333 555.051 337.909C554.808 337.831 554.566 337.762 554.323 337.684C555.441 332.454 557.744 327.553 561.052 323.357C564.361 319.162 568.587 315.786 573.404 313.489C572.212 312.351 571.389 310.881 571.039 309.269C570.815 308.229 570.797 307.156 570.987 306.11C571.177 305.063 571.572 304.065 572.148 303.172C573.272 301.442 575.035 300.23 577.05 299.803L589.887 297.111C591.953 296.707 594.095 297.137 595.846 298.308C597.598 299.479 598.818 301.296 599.241 303.363C599.372 303.997 599.43 304.644 599.414 305.291C611.774 313.541 620.669 322.095 626.29 331.179Z" fill="#326789"/>
<path d="M647.08 248.249C642.316 242.679 640.051 235.288 636.242 228.963C632.434 222.638 625.806 216.976 618.805 218.448C613.978 219.463 610.249 223.733 608.36 228.494C606.472 233.255 606.118 238.505 605.787 243.648C605.904 233.079 598.959 222.832 589.392 219.459C579.825 216.087 568.375 219.849 562.364 228.34C559.74 225.902 556.316 224.514 552.74 224.439C549.164 224.363 545.684 225.606 542.961 227.932C537.584 232.75 536.394 241.922 540.348 248.068C544.303 254.215 552.867 256.504 559.152 253.095L561.374 255.145C560.123 259.53 562.548 264.711 566.625 266.362C569.931 267.701 574.598 267.478 575.835 270.956C576.7 273.387 575.084 275.981 573.365 277.849C571.647 279.716 569.606 281.645 569.4 284.23C569.088 288.129 573.107 290.861 576.76 291.684C585.57 293.668 595.345 289.577 600.423 281.782C600.521 281.632 600.627 281.481 600.742 281.33C603.591 277.677 605.667 273.481 606.844 268.996C608.02 264.512 608.273 259.834 607.585 255.248C607.3 253.447 607.588 252.107 608.826 251.68C614.181 249.836 629.184 253.706 633.725 257.205C638.266 260.703 641.902 265.333 646.275 269.057C650.649 272.781 656.222 275.654 661.776 274.64C666.223 273.827 670.007 270.59 672.552 266.685C675.097 262.78 676.561 258.228 677.873 253.704C668.038 259.401 654.578 257.016 647.08 248.249Z" fill="#2F2E41"/>
<path d="M71.7381 190.312C71.7381 192.422 71.8074 194.532 71.9547 196.625C72.1106 199.126 72.3791 201.61 72.7428 204.076C73.9654 212.38 76.302 220.481 79.6892 228.158C79.8624 228.54 80.0357 228.922 80.2089 229.304L80.4688 229.877C80.5554 230.068 80.6507 230.259 80.7373 230.442C80.8585 230.693 80.9711 230.937 81.0924 231.18C81.2396 231.484 81.3869 231.788 81.5428 232.092C81.5601 232.126 81.5774 232.17 81.6034 232.213C81.7333 232.474 81.8546 232.725 81.9932 232.986C82.0186 233.043 82.0476 233.098 82.0798 233.151C82.227 233.446 82.3829 233.75 82.5388 234.046C82.7121 234.358 82.8766 234.679 83.0499 234.992C83.4656 235.765 83.8987 236.529 84.3404 237.293C84.4703 237.519 84.6002 237.745 84.7388 237.971C84.8601 238.179 84.9813 238.388 85.1113 238.596C85.1979 238.735 85.2845 238.883 85.3711 239.022C85.5097 239.256 85.6483 239.482 85.7955 239.716C86.116 240.229 86.4451 240.741 86.7656 241.253H86.7742C86.9215 241.488 87.0774 241.722 87.2333 241.948V241.957C87.6923 242.652 88.1687 243.346 88.6451 244.032C88.6462 244.032 88.6474 244.033 88.6484 244.033C88.6495 244.033 88.6505 244.034 88.6513 244.035C88.6521 244.036 88.6527 244.037 88.6532 244.038C88.6536 244.039 88.6538 244.04 88.6538 244.041C89.0349 244.597 89.4333 245.135 89.823 245.674V245.682C90.0829 246.021 90.3341 246.368 90.5939 246.707C90.8018 246.985 91.0183 247.272 91.2348 247.549C91.2781 247.61 91.3301 247.662 91.3734 247.723V247.732C91.434 247.81 91.4947 247.879 91.5553 247.958C92.4734 249.139 93.4204 250.294 94.3962 251.423L94.5521 251.605C94.6041 251.666 94.6647 251.727 94.7167 251.796C94.8033 251.892 94.8813 251.987 94.9679 252.083C95.0458 252.178 95.1324 252.274 95.2191 252.369C100.306 258.115 106.074 263.215 112.395 267.558C113.235 268.14 114.092 268.704 114.95 269.251C115.166 269.39 115.383 269.529 115.599 269.66C115.66 269.703 115.729 269.746 115.79 269.79C115.911 269.859 116.024 269.929 116.145 270.007C116.258 270.076 116.37 270.146 116.491 270.215C116.95 270.502 117.418 270.78 117.886 271.058C117.998 271.127 118.12 271.197 118.241 271.266C118.354 271.327 118.475 271.396 118.596 271.466C118.596 271.475 118.596 271.475 118.605 271.475H118.613V271.483H118.622C119.202 271.822 119.791 272.152 120.389 272.473C120.709 272.647 121.039 272.829 121.368 272.994C122.113 273.403 122.866 273.793 123.62 274.167C123.888 274.297 124.165 274.427 124.434 274.566C124.659 274.67 124.884 274.783 125.109 274.888C125.179 274.922 125.239 274.948 125.3 274.983C125.491 275.07 125.672 275.157 125.863 275.244C126.071 275.339 126.279 275.435 126.478 275.53C126.712 275.634 126.937 275.739 127.171 275.834C128.037 276.225 128.912 276.598 129.787 276.954C132.922 278.243 136.125 279.356 139.383 280.289C139.531 280.333 139.686 280.376 139.842 280.419C141.237 280.81 142.64 281.166 144.052 281.488C146.52 282.061 149.012 282.53 151.527 282.894H151.544C151.847 282.938 152.142 282.981 152.445 283.025C152.471 283.025 152.497 283.033 152.531 283.033C152.531 283.042 152.531 283.042 152.54 283.033C152.869 283.077 153.207 283.12 153.536 283.164C153.558 283.17 153.582 283.173 153.605 283.172C153.917 283.216 154.238 283.25 154.549 283.285C154.887 283.32 155.225 283.355 155.563 283.389C155.823 283.415 156.082 283.442 156.342 283.468C156.365 283.475 156.388 283.478 156.412 283.476C156.645 283.494 156.879 283.52 157.113 283.537H157.148C157.347 283.554 157.555 283.572 157.754 283.589C160.171 283.78 162.596 283.867 165.056 283.867C167.715 283.867 170.356 283.763 172.963 283.537H172.989C173.552 283.485 174.107 283.433 174.661 283.381C174.808 283.363 174.947 283.355 175.094 283.337C175.12 283.337 175.155 283.329 175.181 283.329C175.224 283.32 175.267 283.32 175.319 283.311C175.343 283.312 175.366 283.309 175.389 283.303C175.579 283.285 175.77 283.259 175.969 283.242L176.619 283.164C176.835 283.138 177.052 283.103 177.268 283.077C177.32 283.068 177.363 283.068 177.415 283.059C177.571 283.042 177.727 283.016 177.883 282.99C177.961 282.981 178.039 282.973 178.108 282.964C178.264 282.938 178.411 282.921 178.567 282.894H178.576C183.329 282.208 188.02 281.149 192.607 279.725C192.85 279.647 193.092 279.577 193.335 279.499C193.344 279.499 193.352 279.49 193.361 279.49C193.43 279.464 193.508 279.447 193.577 279.421C194.227 279.212 194.868 278.995 195.509 278.769C196.392 278.474 197.267 278.153 198.142 277.823C198.376 277.727 198.61 277.64 198.844 277.545C199.32 277.363 199.788 277.172 200.255 276.98C201.052 276.659 201.849 276.32 202.637 275.973C203.373 275.643 204.101 275.313 204.829 274.966C204.846 274.957 204.872 274.957 204.889 274.94C205.054 274.862 205.218 274.783 205.374 274.705H205.383C209.372 272.786 213.218 270.583 216.894 268.114C218.072 267.324 219.232 266.507 220.376 265.665C221.294 264.979 222.195 264.284 223.095 263.572C227.539 260.028 231.653 256.086 235.386 251.796V251.787C235.654 251.492 235.906 251.188 236.165 250.884C236.209 250.841 236.243 250.797 236.278 250.763C236.443 250.563 236.598 250.372 236.763 250.181V250.172C236.98 249.92 237.196 249.66 237.404 249.399C237.456 249.339 237.499 249.286 237.543 249.234V249.226C237.716 249.017 237.88 248.809 238.054 248.592C238.14 248.487 238.218 248.383 238.305 248.279V248.27C238.816 247.628 239.309 246.985 239.803 246.325C239.933 246.151 240.063 245.969 240.202 245.787C240.825 244.944 241.431 244.085 242.02 243.225V243.216C242.246 242.895 242.462 242.565 242.687 242.243C242.904 241.913 243.12 241.583 243.337 241.253C243.554 240.906 243.779 240.567 243.995 240.22L244.021 240.168C244.238 239.838 244.454 239.491 244.662 239.152C244.827 238.874 244.991 238.605 245.156 238.336C245.26 238.153 245.372 237.971 245.476 237.78C245.517 237.721 245.555 237.66 245.589 237.597C245.831 237.172 246.074 236.746 246.316 236.321C246.602 235.826 246.879 235.322 247.157 234.818C247.261 234.61 247.373 234.402 247.486 234.193C247.529 234.124 247.564 234.054 247.598 233.985C247.728 233.742 247.858 233.49 247.979 233.238C248.109 232.995 248.239 232.743 248.369 232.491C248.49 232.248 248.62 231.996 248.742 231.744C248.837 231.553 248.924 231.362 249.019 231.171C249.026 231.155 249.034 231.141 249.045 231.128C249.088 231.032 249.131 230.945 249.166 230.858C249.177 230.845 249.185 230.831 249.192 230.815C249.287 230.624 249.374 230.424 249.469 230.233C249.59 229.981 249.703 229.721 249.824 229.469C249.902 229.295 249.989 229.113 250.067 228.931C250.179 228.679 250.301 228.427 250.405 228.166C250.526 227.906 250.639 227.645 250.751 227.376C250.784 227.311 250.812 227.244 250.838 227.176C250.898 227.055 250.942 226.933 250.994 226.812C251.132 226.49 251.271 226.16 251.401 225.839C251.557 225.474 251.704 225.101 251.842 224.736C251.981 224.397 252.111 224.05 252.241 223.703L252.293 223.581C254.311 218.252 255.842 212.749 256.866 207.142V207.133C257.444 203.932 257.857 200.703 258.105 197.459C258.113 197.276 258.131 197.103 258.139 196.929C258.295 194.732 258.364 192.526 258.364 190.312C258.364 189.33 258.347 188.358 258.321 187.385C257.717 167.043 250.482 147.46 237.724 131.632C237.447 131.285 237.17 130.937 236.884 130.59C236.598 130.243 236.304 129.904 236.018 129.565C226.523 118.417 214.549 109.661 201.059 104.004C187.57 98.3465 172.944 95.9463 158.36 96.9967C143.776 98.0471 129.642 102.519 117.098 110.051C104.554 117.583 93.9501 127.965 86.142 140.36C85.7176 141.037 85.2932 141.723 84.8861 142.409C84.4704 143.104 84.0719 143.799 83.6735 144.502C75.8269 158.487 71.7156 174.266 71.7381 190.312Z" fill="#ACC6D9" fill-opacity="0.51"/>
<path d="M161.347 129.117C176.691 133.064 192.415 135.34 208.247 135.904C210.64 136.035 213.04 136.018 215.432 135.855C220.689 135.412 225.191 133.755 230.206 132.85C232.617 132.416 235.302 132.099 237.729 131.63C237.168 130.932 236.597 130.243 236.016 129.562C230.783 130.006 225.468 131.457 220.172 132.131C211.169 133.279 201.082 131.998 194.257 128.839C190.946 127.306 188.409 125.393 185.11 123.853C184.661 123.622 184.175 123.473 183.674 123.412C182.723 123.384 181.783 123.628 180.965 124.117C175.43 126.919 167.392 129.196 159.932 127.943C159.376 128.38 160.432 128.877 161.347 129.117Z" fill="white"/>
<path d="M128.334 138.978C128.266 138.965 128.198 138.956 128.13 138.944C128.416 138.766 128.686 138.562 128.936 138.335L128.334 138.978Z" fill="white"/>
<path d="M83.6753 144.506C86.7911 144.756 89.9231 144.941 93.0715 145.064C95.4655 145.193 97.8652 145.177 100.257 145.015C105.514 144.569 110.016 142.915 115.031 142.01C119.627 141.181 125.211 140.782 128.129 138.944C120.588 137.635 112.774 140.299 104.997 141.291C98.7067 142.066 92.3301 141.751 86.1465 140.358C85.2855 141.716 84.4618 143.098 83.6753 144.506Z" fill="white"/>
<path d="M121.368 272.994C122.113 273.403 122.866 273.793 123.62 274.167C123.888 274.297 124.165 274.427 124.434 274.566C124.659 274.67 124.884 274.783 125.109 274.888C125.179 274.922 125.239 274.948 125.3 274.983C125.49 275.07 125.672 275.157 125.863 275.244C126.071 275.339 126.279 275.435 126.478 275.53C126.712 275.634 126.937 275.739 127.171 275.834C128.037 276.225 128.912 276.598 129.787 276.954C132.922 278.243 136.125 279.356 139.383 280.289C139.531 280.333 139.686 280.376 139.842 280.419C141.237 280.81 142.64 281.166 144.052 281.488C146.52 282.061 149.012 282.53 151.527 282.894H151.544C151.847 282.938 152.142 282.981 152.445 283.025C152.471 283.025 152.497 283.033 152.531 283.033C152.531 283.042 152.531 283.042 152.54 283.033C152.869 283.077 153.207 283.12 153.536 283.164C153.558 283.17 153.582 283.173 153.605 283.172C153.917 283.216 154.238 283.251 154.549 283.285C154.887 283.32 155.225 283.355 155.563 283.389C155.823 283.416 156.082 283.442 156.342 283.468C156.365 283.475 156.388 283.478 156.412 283.476C156.645 283.494 156.879 283.52 157.113 283.537H157.148C157.347 283.554 157.555 283.572 157.754 283.589C160.171 283.78 162.596 283.867 165.056 283.867C167.715 283.867 170.356 283.763 172.963 283.537H172.989C173.552 283.485 174.107 283.433 174.661 283.381C174.808 283.363 174.947 283.355 175.094 283.337C175.12 283.337 175.155 283.329 175.181 283.329C175.224 283.32 175.267 283.32 175.319 283.311C175.343 283.312 175.366 283.309 175.389 283.303C175.579 283.285 175.77 283.259 175.969 283.242L176.619 283.164C176.835 283.138 177.052 283.103 177.268 283.077C177.32 283.068 177.363 283.068 177.415 283.059C177.571 283.042 177.727 283.016 177.883 282.99C177.961 282.981 178.039 282.973 178.108 282.964C178.264 282.938 178.411 282.921 178.567 282.895H178.576C183.329 282.208 188.02 281.149 192.607 279.725C192.85 279.647 193.092 279.577 193.335 279.499C192.217 274.27 189.914 269.368 186.606 265.173C183.297 260.978 179.071 257.601 174.254 255.305C175.445 254.167 176.269 252.696 176.619 251.084C176.843 250.045 176.861 248.971 176.671 247.925C176.481 246.879 176.086 245.881 175.51 244.988C174.386 243.257 172.623 242.045 170.608 241.618L157.771 238.926C155.705 238.522 153.563 238.952 151.812 240.123C150.06 241.294 148.84 243.111 148.417 245.179C148.286 245.813 148.228 246.46 148.244 247.107C135.884 255.357 126.989 263.911 121.368 272.994Z" fill="#326789"/>
<path d="M172.148 230.239C189.404 230.239 203.392 216.213 203.392 198.912C203.392 181.61 189.404 167.585 172.148 167.585C154.892 167.585 140.904 181.61 140.904 198.912C140.904 216.213 154.892 230.239 172.148 230.239Z" fill="#9E616A"/>
<path d="M167.708 228.564C159.886 230.682 151.263 227.866 145.158 222.524C139.054 217.183 135.236 209.614 133.036 201.795C131.424 196.069 130.66 189.713 133.203 184.337C135.746 178.962 142.589 175.335 147.869 178.05C144.612 174.246 146.239 167.953 150.043 164.698C153.847 161.443 159.071 160.51 164.046 159.999C171.266 159.259 178.724 159.176 185.594 161.522C192.465 163.867 198.707 168.994 200.857 175.944C203.054 176.97 205.527 177.236 207.89 176.701C210.253 176.166 212.372 174.86 213.916 172.988C214.314 175.138 213.994 177.36 213.006 179.309C212.018 181.258 210.417 182.827 208.451 183.772L218.977 180.35C220.788 184.192 217.616 188.947 213.559 190.178C209.502 191.408 205.123 190.063 201.274 188.286C197.424 186.508 193.694 184.261 189.512 183.567C185.331 182.874 180.419 184.221 178.485 188.002C177.472 189.983 177.42 192.302 176.831 194.448C176.243 196.594 174.753 198.819 172.54 198.995C171.142 199.106 169.774 198.359 168.379 198.512C167.524 198.681 166.736 199.096 166.112 199.707C165.488 200.318 165.056 201.098 164.868 201.952C164.521 203.665 164.516 205.431 164.855 207.145L167.529 227.638L167.708 228.564Z" fill="#2F2E41"/>
</g>
<defs>
<clipPath id="clip0_38_43">
<rect width="701" height="547" fill="white"/>
</clipPath>
</defs>
</svg>
