<svg width="188" height="75" viewBox="0 0 188 75" fill="none" xmlns="http://www.w3.org/2000/svg">
<path d="M17.1 34.2H12.5V55H3.95V34.2H0.85V27.1H3.95V26.3C3.95 22.8667 4.93333 20.2667 6.9 18.5C8.86667 16.7 11.75 15.8 15.55 15.8C16.1833 15.8 16.65 15.8167 16.95 15.85V23.1C15.3167 23 14.1667 23.2333 13.5 23.8C12.8333 24.3667 12.5 25.3833 12.5 26.85V27.1H17.1V34.2ZM33.8176 55.4C31.0842 55.4 28.6176 54.8167 26.4176 53.65C24.2509 52.4833 22.5342 50.8167 21.2676 48.65C20.0342 46.4833 19.4176 43.95 19.4176 41.05C19.4176 38.1833 20.0509 35.6667 21.3176 33.5C22.5842 31.3 24.3176 29.6167 26.5176 28.45C28.7176 27.2833 31.1842 26.7 33.9176 26.7C36.6509 26.7 39.1176 27.2833 41.3176 28.45C43.5176 29.6167 45.2509 31.3 46.5176 33.5C47.7842 35.6667 48.4176 38.1833 48.4176 41.05C48.4176 43.9167 47.7676 46.45 46.4676 48.65C45.2009 50.8167 43.4509 52.4833 41.2176 53.65C39.0176 54.8167 36.5509 55.4 33.8176 55.4ZM33.8176 48C35.4509 48 36.8342 47.4 37.9676 46.2C39.1342 45 39.7176 43.2833 39.7176 41.05C39.7176 38.8167 39.1509 37.1 38.0176 35.9C36.9176 34.7 35.5509 34.1 33.9176 34.1C32.2509 34.1 30.8676 34.7 29.7676 35.9C28.6676 37.0667 28.1176 38.7833 28.1176 41.05C28.1176 43.2833 28.6509 45 29.7176 46.2C30.8176 47.4 32.1842 48 33.8176 48ZM80.5035 27.1V55H71.9535V51.2C71.0868 52.4333 69.9035 53.4333 68.4035 54.2C66.9369 54.9333 65.3035 55.3 63.5035 55.3C61.3702 55.3 59.4868 54.8333 57.8535 53.9C56.2202 52.9333 54.9535 51.55 54.0535 49.75C53.1535 47.95 52.7035 45.8333 52.7035 43.4V27.1H61.2035V42.25C61.2035 44.1167 61.6868 45.5667 62.6535 46.6C63.6202 47.6333 64.9202 48.15 66.5535 48.15C68.2202 48.15 69.5368 47.6333 70.5035 46.6C71.4702 45.5667 71.9535 44.1167 71.9535 42.25V27.1H80.5035ZM103.645 26.8C106.912 26.8 109.512 27.8667 111.445 30C113.412 32.1 114.395 35 114.395 38.7V55H105.895V39.85C105.895 37.9833 105.412 36.5333 104.445 35.5C103.478 34.4667 102.178 33.95 100.545 33.95C98.9116 33.95 97.6116 34.4667 96.6449 35.5C95.6783 36.5333 95.1949 37.9833 95.1949 39.85V55H86.6449V27.1H95.1949V30.8C96.0616 29.5667 97.2283 28.6 98.6949 27.9C100.162 27.1667 101.812 26.8 103.645 26.8ZM118.636 41C118.636 38.1333 119.17 35.6167 120.236 33.45C121.336 31.2833 122.82 29.6167 124.686 28.45C126.553 27.2833 128.636 26.7 130.936 26.7C132.77 26.7 134.436 27.0833 135.936 27.85C137.47 28.6167 138.67 29.65 139.536 30.95V18H148.086V55H139.536V51C138.736 52.3333 137.586 53.4 136.086 54.2C134.62 55 132.903 55.4 130.936 55.4C128.636 55.4 126.553 54.8167 124.686 53.65C122.82 52.45 121.336 50.7667 120.236 48.6C119.17 46.4 118.636 43.8667 118.636 41ZM139.536 41.05C139.536 38.9167 138.936 37.2333 137.736 36C136.57 34.7667 135.136 34.15 133.436 34.15C131.736 34.15 130.286 34.7667 129.086 36C127.92 37.2 127.336 38.8667 127.336 41C127.336 43.1333 127.92 44.8333 129.086 46.1C130.286 47.3333 131.736 47.95 133.436 47.95C135.136 47.95 136.57 47.3333 137.736 46.1C138.936 44.8667 139.536 43.1833 139.536 41.05ZM162.822 31.75C163.822 30.2167 165.072 29.0167 166.572 28.15C168.072 27.25 169.739 26.8 171.572 26.8V35.85H169.222C167.089 35.85 165.489 36.3167 164.422 37.25C163.355 38.15 162.822 39.75 162.822 42.05V55H154.272V27.1H162.822V31.75Z" fill="#326789"/>
<path d="M180.1 55.4C178.6 55.4 177.367 54.9667 176.4 54.1C175.467 53.2 175 52.1 175 50.8C175 49.4667 175.467 48.35 176.4 47.45C177.367 46.55 178.6 46.1 180.1 46.1C181.567 46.1 182.767 46.55 183.7 47.45C184.667 48.35 185.15 49.4667 185.15 50.8C185.15 52.1 184.667 53.2 183.7 54.1C182.767 54.9667 181.567 55.4 180.1 55.4Z" fill="#E65C4F"/>
</svg>
