<svg width="49" height="49" viewBox="0 0 49 49" fill="none" xmlns="http://www.w3.org/2000/svg">
<path fill-rule="evenodd" clip-rule="evenodd" d="M6.88232 0C4.67319 0 2.88232 1.79086 2.88232 4V32.8788V38.2746C2.88232 39.3153 4.07973 39.9003 4.90064 39.2606L12.7519 33.1428C12.9714 32.9717 13.2418 32.8788 13.5202 32.8788H39.7157C41.9248 32.8788 43.7157 31.0879 43.7157 28.8788V4C43.7157 1.79086 41.9248 0 39.7157 0H6.88232ZM15.1323 18.375C16.2599 18.375 17.174 17.4609 17.174 16.3333C17.174 15.2058 16.2599 14.2917 15.1323 14.2917C14.0047 14.2917 13.0907 15.2058 13.0907 16.3333C13.0907 17.4609 14.0047 18.375 15.1323 18.375ZM25.3407 16.3333C25.3407 17.4609 24.4266 18.375 23.299 18.375C22.1714 18.375 21.2573 17.4609 21.2573 16.3333C21.2573 15.2058 22.1714 14.2917 23.299 14.2917C24.4266 14.2917 25.3407 15.2058 25.3407 16.3333ZM31.4657 18.375C32.5932 18.375 33.5073 17.4609 33.5073 16.3333C33.5073 15.2058 32.5932 14.2917 31.4657 14.2917C30.3381 14.2917 29.424 15.2058 29.424 16.3333C29.424 17.4609 30.3381 18.375 31.4657 18.375Z" fill="#326789"/>
</svg>
