<svg width="29" height="29" viewBox="0 0 29 29" fill="none" xmlns="http://www.w3.org/2000/svg">
<path d="M12.0833 4.83332C12.0833 3.49864 13.1652 2.41666 14.4999 2.41666V2.41666C15.8346 2.41666 16.9166 3.49864 16.9166 4.83332V4.83332H12.0833V4.83332Z" stroke="#326789" stroke-width="1.5"/>
<path d="M10.875 22.9583C10.875 24.9603 12.498 26.5833 14.5 26.5833V26.5833C16.502 26.5833 18.125 24.9603 18.125 22.9583V22.9583H10.875V22.9583Z" stroke="#326789" stroke-width="1.5"/>
<path d="M7.25 10.3889C7.25 7.32062 9.73731 4.83331 12.8056 4.83331H16.1944C19.2627 4.83331 21.75 7.32062 21.75 10.3889V19.3333H7.25V10.3889Z" stroke="#326789" stroke-width="1.5"/>
<rect x="4.83325" y="19.3333" width="19.3333" height="3.625" rx="1.66667" stroke="#326789" stroke-width="1.5"/>
</svg>
