<svg width="24" height="24" viewBox="0 0 24 24" fill="none" xmlns="http://www.w3.org/2000/svg">
<rect width="24" height="24" fill="white" fill-opacity="0.75"/>
<path d="M15.0664 3.77975C15.4971 3.3491 16.1953 3.3491 16.6259 3.77975L19.2203 6.3741C19.6509 6.80475 19.6509 7.50295 19.2203 7.9336L18.313 8.8409C18.0977 9.05622 17.7486 9.05622 17.5332 8.8409L14.1591 5.4668C13.9438 5.25148 13.9438 4.90237 14.1591 4.68705L15.0664 3.77975Z" stroke="#6A6A6A" stroke-width="1.5"/>
<path d="M12.9893 5.85665C13.4199 5.42601 14.1181 5.42601 14.5488 5.85665L17.1431 8.45101C17.5738 8.88165 17.5738 9.57986 17.1431 10.0105L9.00086 18.1528C8.9578 18.1958 8.88798 18.1958 8.84491 18.1528L4.84701 14.1549C4.80395 14.1118 4.80395 14.042 4.84701 13.9989L12.9893 5.85665Z" stroke="#6A6A6A" stroke-width="1.5"/>
<path d="M4.73785 14.2952C4.7507 14.2053 4.86074 14.1686 4.92499 14.2329L8.76694 18.0748C8.8312 18.1391 8.79452 18.2491 8.70456 18.2619L5.53226 18.7151C4.8045 18.8191 4.1807 18.1953 4.28467 17.4675L4.73785 14.2952Z" stroke="#6A6A6A" stroke-width="1.5"/>
</svg>
