<svg width="49" height="49" viewBox="0 0 49 49" fill="none" xmlns="http://www.w3.org/2000/svg">
<path fill-rule="evenodd" clip-rule="evenodd" d="M25.3396 5.38053C24.9455 4.77159 24.0546 4.77159 23.6605 5.38053L20.5251 10.2256C20.2679 10.623 19.7673 10.7857 19.3257 10.6153L13.9412 8.53853C13.2645 8.27752 12.5437 8.80121 12.5828 9.52547L12.894 15.2882C12.9196 15.7609 12.6102 16.1867 12.1528 16.3085L6.5759 17.7932C5.875 17.9798 5.59968 18.8272 6.05704 19.3901L9.69609 23.8693C9.99458 24.2367 9.99458 24.7631 9.69609 25.1304L6.05704 29.6096C5.59968 30.1726 5.875 31.0199 6.5759 31.2065L12.1528 32.6913C12.6102 32.8131 12.9196 33.2389 12.894 33.7116L12.5828 39.4743C12.5437 40.1986 13.2645 40.7222 13.9412 40.4612L19.3257 38.3844C19.7673 38.2141 20.2679 38.3767 20.5251 38.7741L23.6605 43.6192C24.0546 44.2282 24.9455 44.2282 25.3396 43.6192L28.475 38.7741C28.7322 38.3767 29.2328 38.2141 29.6744 38.3844L35.0589 40.4612C35.7357 40.7222 36.4564 40.1986 36.4173 39.4743L36.1061 33.7116C36.0805 33.2389 36.3899 32.8131 36.8473 32.6913L42.4242 31.2065C43.1251 31.0199 43.4004 30.1726 42.9431 29.6096L39.304 25.1304C39.0055 24.7631 39.0055 24.2367 39.304 23.8693L42.9431 19.3901C43.4004 18.8272 43.1251 17.9798 42.4242 17.7932L36.8473 16.3085C36.3899 16.1867 36.0805 15.7609 36.1061 15.2882L36.4173 9.52547C36.4564 8.80121 35.7357 8.27752 35.0589 8.53853L29.6744 10.6153C29.2328 10.7857 28.7322 10.623 28.475 10.2256L25.3396 5.38053ZM31.1554 20.9469C31.4483 20.654 31.4483 20.1791 31.1554 19.8862C30.8625 19.5933 30.3876 19.5933 30.0947 19.8862L22.4584 27.5226L18.9054 23.9696C18.6125 23.6767 18.1376 23.6767 17.8447 23.9696C17.5518 24.2624 17.5518 24.7373 17.8447 25.0302L21.5745 28.76C22.0627 29.2481 22.8541 29.2481 23.3423 28.76L31.1554 20.9469Z" fill="#326789"/>
</svg>
